nColumns=19
nRows=75
DataType=double
version=3
OpenSimVersion=4.1
endheader
time	ground_force_1_vx	ground_force_1_vy	ground_force_1_vz	ground_force_1_px	ground_force_1_py	ground_force_1_pz	ground_force_1_mx	ground_force_1_my	ground_force_1_mz	ground_force_2_vx	ground_force_2_vy	ground_force_2_vz	ground_force_2_px	ground_force_2_py	ground_force_2_pz	ground_force_2_mx	ground_force_2_my	ground_force_2_mz
0	0	0	0	0.178831	0	-0.197655	0	0	0	0	0	0	0.792018	0	-0.301353	0	0	0
0.01	0	0	0	0.178831	0	-0.197655	0	0	0	0	0	0	0.792018	0	-0.301353	0	0	0
0.02	0	0	0	0.178831	0	-0.197655	0	0	0	0	0	0	0.792018	0	-0.301353	0	0	0
0.03	7.97631	54.3212	9.68792	0.176337	0.0057	-0.200206	0	0.222603	0	0	0	0	0.792018	0	-0.301353	0	0	0
0.04	-0.415474	158.776	20.3214	0.17518	0.006	-0.204253	0	0.27716	0	0	0	0	0.792018	0	-0.301353	0	0	0
0.05	-32.6709	246.955	20.9387	0.177587	0.006	-0.205938	0	0.254031	0	0	0	0	0.792018	0	-0.301353	0	0	0
0.06	-61.0205	301.764	20.8286	0.180503	0.006	-0.207591	0	0.17772	0	0	0	0	0.792018	0	-0.301353	0	0	0
0.07	-85.0631	342.661	21.872	0.1839	0.006	-0.209361	0	0.511172	0	0	0	0	0.792018	0	-0.301353	0	0	0
0.08	-101.746	385.453	22.179	0.186878	0.006	-0.21013	0	1.20816	0	0	0	0	0.792018	0	-0.301353	0	0	0
0.09	-107.796	425.703	19.3021	0.189551	0.006	-0.209306	0	1.47332	0	0	0	0	0.792018	0	-0.301353	0	0	0
0.1	-110.447	465.269	9.55474	0.192644	0.006	-0.206883	0	0.810009	0	0	0	0	0.792018	0	-0.301353	0	0	0
0.11	-110.47	507.693	-6.63919	0.196158	0.006	-0.203155	0	-0.491314	0	0	0	0	0.792018	0	-0.301353	0	0	0
0.12	-111.231	541.587	-25.8465	0.199945	0.006	-0.199047	0	-1.69197	0	0	0	0	0.792018	0	-0.301353	0	0	0
0.13	-115.773	562.567	-40.6732	0.204227	0.006	-0.1955	0	-1.98919	0	0	0	0	0.792018	0	-0.301353	0	0	0
0.14	-122.901	583.187	-48.3981	0.209141	0.006	-0.192635	0	-1.51865	0	0	0	0	0.792018	0	-0.301353	0	0	0
0.15	-129.64	608.64	-51.8565	0.214255	0.006	-0.190365	0	-1.05063	0	0	0	0	0.792018	0	-0.301353	0	0	0
0.16	-133.801	636.643	-54.3745	0.218886	0.006	-0.188606	0	-0.88414	0	0	0	0	0.792018	0	-0.301353	0	0	0
0.17	-134.362	664.019	-54.8022	0.222463	0.006	-0.187489	0	-0.712081	0	0	0	0	0.792018	0	-0.301353	0	0	0
0.18	-132.261	687.98	-52.3431	0.225101	0.006	-0.186961	0	-0.402663	0	0	0	0	0.792018	0	-0.301353	0	0	0
0.19	-127.802	705.565	-48.2548	0.227135	0.006	-0.186758	0	-0.086983	0	0	0	0	0.792018	0	-0.301353	0	0	0
0.2	-121.166	713.607	-43.1334	0.228685	0.006	-0.1867	0	0.147675	0	0	0	0	0.792018	0	-0.301353	0	0	0
0.21	-113.319	710.749	-37.283	0.230056	0.006	-0.186629	0	0.331653	0	0	0	0	0.792018	0	-0.301353	0	0	0
0.22	-105.123	698.305	-32.6065	0.231407	0.006	-0.186253	0	0.450909	0	0	0	0	0.792018	0	-0.301353	0	0	0
0.23	-97.2767	679.363	-30.6274	0.23303	0.006	-0.185328	0	0.494927	0	0	0	0	0.792018	0	-0.301353	0	0	0
0.24	-89.9375	656.693	-30.8253	0.235137	0.006	-0.1839	0	0.504073	0	0	0	0	0.792018	0	-0.301353	0	0	0
0.25	-83.0484	632.888	-32.1292	0.237675	0.006	-0.182027	0	0.495828	0	0	0	0	0.792018	0	-0.301353	0	0	0
0.26	-76.8378	610.245	-33.8319	0.240523	0.006	-0.179827	0	0.455951	0	0	0	0	0.792018	0	-0.301353	0	0	0
0.27	-71.2735	590.812	-35.6222	0.24371	0.006	-0.177362	0	0.410998	0	0	0	0	0.792018	0	-0.301353	0	0	0
0.28	-66.4017	573.603	-37.3323	0.247212	0.006	-0.17471	0	0.388176	0	0	0	0	0.792018	0	-0.301353	0	0	0
0.29	-61.2235	556.084	-37.8339	0.250555	0.006	-0.17231	0	0.413758	0	0	0	0	0.792018	0	-0.301353	0	0	0
0.3	-55.1946	539.845	-37.8238	0.253557	0.006	-0.170052	0	0.379988	0	0	0	0	0.792018	0	-0.301353	0	0	0
0.31	-48.6109	524.93	-37.4421	0.25625	0.006	-0.167881	0	0.31117	0	0	0	0	0.792018	0	-0.301353	0	0	0
0.32	-41.9358	510.809	-36.4525	0.258569	0.006	-0.165892	0	0.258899	0	0	0	0	0.792018	0	-0.301353	0	0	0
0.33	-35.5578	498.955	-35.4464	0.260584	0.006	-0.164112	0	0.166639	0	0	0	0	0.792018	0	-0.301353	0	0	0
0.34	-29.8182	490.377	-34.636	0.262366	0.006	-0.162458	0	0.0709185	0	0	0	0	0.792018	0	-0.301353	0	0	0
0.35	-24.7682	484.789	-34.0607	0.264093	0.006	-0.160916	0	-0.0213203	0	0	0	0	0.792018	0	-0.301353	0	0	0
0.36	-20.13	481.631	-33.742	0.265867	0.006	-0.159508	0	-0.0757839	0	0	0	0	0.792018	0	-0.301353	0	0	0
0.37	-16.0188	480.574	-33.5644	0.267723	0.006	-0.158124	0	-0.125988	0	0	0	0	0.792018	0	-0.301353	0	0	0
0.38	-12.6768	481.432	-33.432	0.269594	0.006	-0.156827	0	-0.204814	0	0	0	0	0.792018	0	-0.301353	0	0	0
0.39	-10.1542	484.328	-33.2115	0.271623	0.006	-0.155653	0	-0.286495	0	0	0	0	0.792018	0	-0.301353	0	0	0
0.4	-7.58488	488.63	-32.8057	0.273534	0.006	-0.154613	0	-0.405461	0	0	0	0	0.792018	0	-0.301353	0	0	0
0.41	-3.91869	494.06	-32.6124	0.275199	0.006	-0.153682	0	-0.536376	0	0	0	0	0.792018	0	-0.301353	0	0	0
0.42	0.705182	501.484	-33.0835	0.276512	0.006	-0.152852	0	-0.656875	0	0	0	0	0.792018	0	-0.301353	0	0	0
0.43	5.76914	510.515	-34.2661	0.277755	0.006	-0.152037	0	-0.769372	0	0	0	0	0.792018	0	-0.301353	0	0	0
0.44	10.9321	520.455	-36.1231	0.279263	0.006	-0.151269	0	-0.902552	0	0	0	0	0.792018	0	-0.301353	0	0	0
0.45	15.944	530.772	-38.3481	0.281104	0.006	-0.150596	0	-1.05606	0	0	0	0	0.792018	0	-0.301353	0	0	0
0.46	20.5622	541.643	-40.7436	0.283436	0.006	-0.150051	0	-1.25853	0	0	0	0	0.792018	0	-0.301353	0	0	0
0.47	24.9194	553.831	-43.2405	0.286526	0.006	-0.149617	0	-1.49134	0	0	0	0	0.792018	0	-0.301353	0	0	0
0.48	28.7342	567.461	-46.1066	0.290368	0.006	-0.149199	0	-1.74948	0	0	0	0	0.792018	0	-0.301353	0	0	0
0.49	31.881	582.722	-48.8206	0.294849	0.006	-0.148898	0	-2.03398	0	0	0	0	0.792018	0	-0.301353	0	0	0
0.5	35.1637	600.261	-50.9693	0.299745	0.006	-0.14864	0	-2.31081	0	0	0	0	0.792018	0	-0.301353	0	0	0
0.51	38.8742	618.471	-52.7176	0.3052	0.006	-0.148211	0	-2.5343	0	0	0	0	0.792018	0	-0.301353	0	0	0
0.52	42.5271	634.882	-54.1715	0.311331	0.006	-0.147411	0	-2.68172	0	0	0	0	0.792018	0	-0.301353	0	0	0
0.53	46.7471	650.517	-55.8974	0.317692	0.006	-0.146464	0	-2.77997	0	0	0	0	0.792018	0	-0.301353	0	0	0
0.54	51.0178	667.57	-57.5814	0.323847	0.006	-0.145653	0	-2.91941	0	0	0	0	0.792018	0	-0.301353	0	0	0
0.55	54.1743	683.535	-58.795	0.329963	0.006	-0.145022	0	-3.08403	0	0	0	0	0.792018	0	-0.301353	0	0	0
0.56	56.9293	693.845	-60.2619	0.33621	0.006	-0.144191	0	-3.17645	0	0	0	0	0.792018	0	-0.301353	0	0	0
0.57	59.7988	698.323	-61.7295	0.342625	0.006	-0.143002	0	-3.16407	0	0	0	0	0.792018	0	-0.301353	0	0	0
0.58	64.1366	699.546	-62.5647	0.348748	0.006	-0.141607	0	-3.09004	0	0	0	0	0.792018	0	-0.301353	0	0	0
0.59	71.3938	699.979	-62.0624	0.354042	0.006	-0.140329	0	-3.01587	0	4.12732	42.7194	-3.49958	0.797848	0.0057	-0.30788	0	0.84322	0
0.6	81.0965	698.911	-60.2713	0.35838	0.006	-0.139419	0	-2.94905	0	6.55979	96.2574	-7.01033	0.807168	0.006	-0.314926	0	0.946334	0
0.61	92.1077	692.581	-57.3562	0.362009	0.006	-0.138679	0	-2.85566	0	-2.09357	127.94	-9.98532	0.811006	0.006	-0.313788	0	0.929203	0
0.62	102.94	678.509	-53.0165	0.365441	0.006	-0.137985	0	-2.78553	0	-10.7152	146.722	-14.401	0.814816	0.006	-0.310874	0	0.677889	0
0.63	112.275	655.842	-47.2379	0.368827	0.006	-0.137386	0	-2.78654	0	-16.5403	162.223	-18.7051	0.818795	0.006	-0.308586	0	0.202641	0
0.64	119.031	624.696	-40.7003	0.372292	0.006	-0.13688	0	-2.8208	0	-23.0591	177.88	-22.6364	0.824548	0.006	-0.307872	0	-0.304532	0
0.65	123.102	585.419	-34.8901	0.375965	0.006	-0.136384	0	-2.73986	0	-34.05	209.604	-23.7518	0.835968	0.006	-0.310876	0	-0.483095	0
0.66	125.912	537.963	-29.1611	0.379675	0.006	-0.136076	0	-2.58456	0	-51.3673	267.459	-18.2488	0.850629	0.006	-0.317237	0	-0.055939	0
0.67	125.933	481.992	-23.5062	0.383404	0.006	-0.136035	0	-2.43218	0	-67.0057	335.951	-8.62935	0.861553	0.006	-0.322812	0	0.646535	0
0.68	122.785	414.672	-17.38	0.387429	0.006	-0.13602	0	-2.18928	0	-76.6021	394.659	-0.331715	0.868713	0.006	-0.326568	0	0.977404	0
0.69	113.188	337.796	-11.1658	0.39212	0.006	-0.136012	0	-1.80814	0	-82.0662	430.875	5.43234	0.873481	0.006	-0.328971	0	0.927508	0
0.7	95.0845	259.482	-6.10936	0.397914	0.006	-0.135935	0	-1.33476	0	-83.4434	448.148	11.9617	0.876794	0.006	-0.330883	0	0.899056	0
0.71	70.5235	187.82	-3.32412	0.404799	0.006	-0.135887	0	-0.918556	0	-83.1349	460.111	20.8136	0.879323	0.006	-0.333088	0	0.994077	0
0.72	45.9544	125.156	-1.96859	0.412486	0.006	-0.1356	0	-0.566832	0	-83.8127	478.1	29.5029	0.881629	0.006	-0.33515	0	1.00195	0
0.73	25.4113	73.1421	-0.964747	0.422312	0.006	-0.134326	0	-0.20998	0	-86.0651	505.226	36.2021	0.884048	0.006	-0.33669	0	0.933447	0
0.74	9.87176	36.9842	-0.434078	0.433891	0.006	-0.131527	0	0.0446455	0	-87.4994	537.465	40.9483	0.886212	0.006	-0.337669	0	0.819648	0
